<svg width="36" height="36" viewBox="0 0 36 36" fill="none" xmlns="http://www.w3.org/2000/svg">
<path d="M18 0C8.05871 0 0 8.05871 0 18C0 27.9413 8.05871 36 18 36C27.9413 36 36 27.9413 36 18C36 8.05871 27.9413 0 18 0ZM18 1.05882C27.3568 1.05882 34.9412 8.64318 34.9412 18C34.9412 27.3568 27.3568 34.9412 18 34.9412C8.64318 34.9412 1.05882 27.3568 1.05882 18C1.05882 8.64318 8.64318 1.05882 18 1.05882ZM25.3973 10.9129C24.9819 10.8649 24.461 10.9775 23.8773 11.188C22.8111 11.5723 9.18285 17.3593 8.39614 17.6939C7.64967 18.0116 6.94338 18.3574 6.94233 18.8582C6.94233 19.2098 7.15217 19.4076 7.72817 19.6131C8.32747 19.8269 9.83733 20.2856 10.7289 20.5313C11.5876 20.7684 12.5659 20.5609 13.1133 20.2211C13.6935 19.86 20.3959 15.3756 20.8766 14.9828C21.3573 14.5899 21.7389 15.0945 21.3461 15.4874C20.9522 15.8812 16.3526 20.3451 15.7459 20.9635C15.0089 21.7142 15.5326 22.4927 16.0271 22.804C16.5915 23.1598 20.6493 25.8803 21.2613 26.3176C21.8733 26.7538 22.4929 26.9524 23.0604 26.9524C23.628 26.9524 23.9255 26.2045 24.2082 25.3373C24.5396 24.3219 26.0918 14.1961 26.2824 12.2013C26.3396 11.5978 26.1495 11.1953 25.7757 11.0163C25.6627 10.9621 25.5358 10.9289 25.3973 10.9129Z" fill="#465036"/>
</svg>
