<svg width="35" height="35" viewBox="0 0 35 35" fill="none" xmlns="http://www.w3.org/2000/svg">
<path d="M17.5 0C7.83485 0 0 7.83485 0 17.5C0 27.1651 7.83485 35 17.5 35C27.1651 35 35 27.1651 35 17.5C35 7.83485 27.1651 0 17.5 0ZM17.5 1.02941C26.5969 1.02941 33.9706 8.40309 33.9706 17.5C33.9706 26.5969 26.5969 33.9706 17.5 33.9706C8.40309 33.9706 1.02941 26.5969 1.02941 17.5C1.02941 8.40309 8.40309 1.02941 17.5 1.02941ZM24.6918 10.6098C24.2879 10.5631 23.7815 10.6726 23.214 10.8772C22.1774 11.2509 8.92777 16.8771 8.16292 17.2024C7.43718 17.5113 6.75051 17.8475 6.74948 18.3344C6.74948 18.6762 6.9535 18.8685 7.5135 19.0682C8.09615 19.2762 9.56407 19.7221 10.4308 19.9609C11.2657 20.1915 12.2168 19.9898 12.749 19.6594C13.3131 19.3083 19.8293 14.9485 20.2967 14.5666C20.7641 14.1847 21.135 14.6752 20.7531 15.0572C20.3702 15.4401 15.8983 19.78 15.3085 20.3811C14.592 21.111 15.1012 21.8679 15.5819 22.1706C16.1306 22.5164 20.0757 25.1614 20.6707 25.5865C21.2657 26.0106 21.8681 26.2038 22.4199 26.2038C22.9716 26.2038 23.2609 25.4766 23.5357 24.6335C23.8579 23.6463 25.367 13.8018 25.5523 11.8624C25.6079 11.2756 25.4231 10.8843 25.0597 10.7103C24.9499 10.6575 24.8264 10.6253 24.6918 10.6098Z" fill="white"/>
</svg>
