<svg width="36" height="36" viewBox="0 0 36 36" fill="none" xmlns="http://www.w3.org/2000/svg">
<path d="M18 0C8.06814 0 0 8.06814 0 18C0 27.9319 8.06814 36 18 36C27.9319 36 36 27.9319 36 18C36 8.06814 27.9319 0 18 0ZM18 1.56522C27.0859 1.56522 34.4348 8.91405 34.4348 18C34.4348 27.0859 27.0859 34.4348 18 34.4348C8.91405 34.4348 1.56522 27.0859 1.56522 18C1.56522 8.91405 8.91405 1.56522 18 1.56522ZM10.1754 12.5217L7.01749 12.5233C7.01749 12.5233 6.83679 12.5131 6.61855 12.5416C6.4003 12.5701 6.07789 12.5834 5.74728 12.9574L5.74575 12.9589L5.74423 12.9604C5.45015 13.2967 5.46137 13.6881 5.49813 13.9035C5.53476 14.1181 5.61736 14.2796 5.61736 14.2796V14.2811C5.64772 14.3556 7.94064 19.9737 10.8312 22.9922C12.8701 25.1227 15.0507 25.8261 16.9927 25.8261H18C18.3314 25.8261 18.6274 25.811 18.9553 25.6411C19.2833 25.4713 19.5652 25.0024 19.5652 24.6384C19.5652 24.2462 19.5749 23.866 19.6248 23.654C19.6715 23.4561 19.6535 23.5047 19.6722 23.5042C19.691 23.5083 19.7251 23.5162 19.7899 23.5455C19.9295 23.6086 20.1452 23.7495 20.3845 23.9353C20.8623 24.3062 21.4282 24.8443 22.0628 25.2605C22.9718 25.863 23.9582 25.8261 23.9582 25.8261H27.2109L27.2461 25.823C27.2461 25.823 27.7452 25.8117 28.258 25.4975C28.5144 25.3403 28.8191 25.0521 28.9214 24.6201C29.0237 24.188 28.893 23.7348 28.6416 23.3361C28.5498 23.1899 28.104 22.5437 26.3244 20.9638C25.8646 20.5561 25.5511 20.2674 25.4271 20.114C25.3831 20.0595 25.3794 20.0647 25.3706 20.062C25.381 20.0352 25.4838 19.8187 25.7588 19.4613C26.0455 19.0887 26.4811 18.5697 27.0413 17.8563C27.7552 16.9468 28.2561 16.0722 28.5713 15.3342C28.7289 14.9653 28.8407 14.6304 28.9076 14.3269C28.9746 14.0234 29.028 13.7711 28.929 13.4113C28.8552 13.1435 28.6547 12.9036 28.4582 12.777C28.2617 12.6504 28.0785 12.6027 27.9141 12.5722C27.5852 12.5112 27.295 12.5217 27.0245 12.5217C26.458 12.5217 23.9398 12.5416 23.732 12.5416C23.488 12.5416 23.0989 12.6432 22.9188 12.7464C22.4717 13.0025 22.3319 13.3533 22.3319 13.3533L22.2891 13.4282L22.2646 13.5122C22.2646 13.5122 21.6912 15.3672 21.1014 16.3232H21.0999C20.4063 17.4495 19.889 17.8962 19.6615 18.0229C19.6374 18.0364 19.6507 18.0292 19.634 18.0382C19.6162 17.9864 19.5938 17.915 19.579 17.7829C19.5457 17.4854 19.5652 17.0663 19.5652 16.661C19.5652 15.5384 19.6495 14.8384 19.556 14.1756C19.5093 13.8442 19.3903 13.4752 19.1189 13.1912C18.8475 12.9073 18.4968 12.7676 18.1467 12.6868H18.1452C17.7803 12.6028 17.3871 12.5306 16.4424 12.5217C15.2388 12.5105 14.4549 12.5478 13.7583 12.858L13.7507 12.8626L13.7446 12.8657C13.4693 12.9949 13.2524 13.1431 13.0613 13.341C12.9658 13.44 12.8524 13.512 12.7739 13.8271C12.7347 13.9846 12.7304 14.2827 12.9085 14.5241C13.0865 14.7656 13.3361 14.8384 13.4832 14.8573C13.456 14.8538 13.5989 14.8853 13.7094 14.9399C13.8199 14.9945 13.9158 15.0731 13.9402 15.105V15.1065C13.93 15.0932 14.0361 15.3568 14.064 15.5971C14.092 15.8374 14.087 16.0312 14.087 16.0312L14.0854 16.0786L14.09 16.126C14.09 16.126 14.1381 16.6578 14.1129 17.2067C14.1004 17.4812 14.0657 17.7574 14.0197 17.9266C14.0173 17.9356 14.0162 17.9324 14.0136 17.9404C13.8176 17.8035 13.3658 17.3267 12.7434 16.2987C12.168 15.3478 11.6291 13.6376 11.6291 13.6376L11.6168 13.5994L11.6031 13.5627C11.6031 13.5627 11.5026 13.1806 11.0589 12.8687C10.6431 12.576 10.2473 12.5355 10.2473 12.5355L10.1754 12.5217ZM9.99355 14.087C10.0383 14.1033 10.1319 14.137 10.1495 14.145L10.1311 14.09L10.1556 14.1466L10.1586 14.1481V14.1496H10.1602C10.1208 14.1221 10.1542 14.1494 10.1586 14.1557C10.1802 14.2295 10.6581 15.8755 11.4044 17.1089C12.0842 18.2316 12.5865 18.8606 13.1347 19.2366C13.6824 19.6122 14.4188 19.5735 14.7931 19.3787C15.2934 19.1189 15.4332 18.6919 15.5299 18.3363C15.6265 17.9806 15.661 17.6198 15.6766 17.2785C15.7064 16.6274 15.6555 16.0948 15.6506 16.042C15.6514 16.0125 15.6584 15.7581 15.6185 15.4153C15.5784 15.0697 15.5064 14.6404 15.1997 14.2092C15.5432 14.1582 15.7339 14.0805 16.4271 14.087C17.3112 14.0953 17.4457 14.1322 17.7936 14.2123C17.9831 14.256 18.0042 14.2922 17.9862 14.2734C17.9683 14.2547 17.9847 14.2421 18.0061 14.3942C18.049 14.6982 18 15.478 18 16.661C18 16.9945 17.9678 17.4647 18.0229 17.9572C18.078 18.4494 18.2318 19.0791 18.8269 19.4475C19.166 19.6574 19.8138 19.7295 20.4243 19.3894C21.0348 19.0493 21.6612 18.3969 22.4327 17.144C23.1948 15.9087 23.6506 14.2846 23.6999 14.1129C23.6999 14.1129 23.7086 14.1073 23.7137 14.1038C23.7275 14.1044 23.7099 14.1068 23.732 14.1068C24.0219 14.1068 26.4953 14.087 27.0245 14.087C27.17 14.087 27.234 14.0948 27.3424 14.0992C27.2986 14.2682 27.2397 14.4649 27.1315 14.7182C26.8771 15.3136 26.4406 16.0859 25.8093 16.8903C25.2652 17.5833 24.8424 18.0859 24.5192 18.5059C24.1959 18.926 23.942 19.2573 23.8359 19.7364C23.7299 20.2155 23.9322 20.7558 24.2089 21.0983C24.4856 21.4408 24.8279 21.7293 25.285 22.1347C27.0068 23.6633 27.2893 24.126 27.3164 24.1692V24.1707C27.3455 24.2168 27.3266 24.1704 27.3378 24.1936C27.2402 24.224 27.124 24.2585 27.1131 24.2609H23.946H23.9414C23.9414 24.2609 23.3589 24.2418 22.9265 23.9552L22.9249 23.9536H22.9234C22.4659 23.654 21.913 23.1401 21.3444 22.6987C21.0601 22.478 20.7707 22.2712 20.435 22.1194C20.0992 21.9676 19.6737 21.86 19.2259 21.9941C18.5777 22.1881 18.218 22.805 18.1024 23.2948C18.0195 23.6465 18.0317 23.9523 18.029 24.2593C18.0067 24.2605 18.026 24.2609 18 24.2609H16.9927C15.402 24.2609 13.7472 23.7753 11.9623 21.91C9.64173 19.4867 7.57132 14.8004 7.26053 14.0885L9.99355 14.087ZM23.6449 14.0931C23.6307 14.0962 23.6713 14.0993 23.7045 14.1022C23.7 14.1047 23.7049 14.1001 23.6984 14.1038C23.6977 14.0907 23.664 14.0888 23.6449 14.0931Z" fill="#465036"/>
</svg>
